<svg width="205" height="205" viewBox="0 0 205 205" fill="none" xmlns="http://www.w3.org/2000/svg">
<circle cx="102.5" cy="102.5" r="102.5" fill="#AAAAAA"/>
<path d="M137.47 28.2446C140.947 28.4922 144.063 30.5709 145.637 33.7451C146.607 35.7003 147.23 37.9553 147.23 40.4152C147.23 44.7948 145.222 48.9968 141.22 51.569C138.033 53.6929 134.516 54.0744 132.042 54.0744H87.7843C88.424 59.4733 88.6961 65.5994 88.6961 72.3002V87.5928H128.043C131.799 87.5928 135.232 89.7329 136.911 93.1193C137.881 95.0745 138.504 97.328 138.504 99.7878C138.504 103.935 136.683 108.131 132.704 110.759C129.455 112.905 125.84 113.265 123.316 113.265H88.6961V160.81C88.6961 163.836 88.213 167.901 85.7121 171.43C82.7722 175.579 78.3569 177.22 74.236 177.22C71.2901 177.22 68.8033 176.235 66.9527 175.169C63.8636 173.389 61.9563 170.078 61.9563 166.491V72.3002C61.9563 64.3151 61.5964 58.5022 60.988 54.6178C60.9747 54.533 60.962 54.4475 60.9509 54.3624C60.4685 50.6674 59.5366 47.6081 58.2767 45.0681C56.9298 42.3524 56.8808 39.1666 58.1428 36.4099L59.2337 34.0265C60.8545 30.4868 64.37 28.2202 68.2374 28.2202H136.769L137.47 28.2446Z" fill="#CC000A"/>
</svg>
